<svg width="800" height="800" viewBox="0 0 20 20" xmlns="http://www.w3.org/2000/svg">
  <path d="M5.9.1a6 6 0 0 0-4.2 1.6A6 6 0 0 0 0 6c0 1-.3 8.6.4 10.6a5 5 0 0 0 3 2.9c.6.2 1.3.4 2.4.5 8.8.4 12.1.1 13.5-3.4.2-.6.4-1.4.5-2.4.4-8.9-.1-10.8-1.6-12.4C17 .5 15.6-.3 5.9.1m0 18c-1 0-1.4-.2-1.8-.4-.9-.3-1.5-1-1.9-1.9-.6-1.5-.4-8.7-.3-9.8 0-1.2.3-2.2 1-3 1-1 2.3-1.5 11-1 1.2 0 2.3.2 3 1 1 1 1.6 2.3 1.2 11 0 1-.2 1.5-.4 1.8-.9 2.4-3 2.7-11.7 2.3m8-13.4a1.2 1.2 0 1 0 2.5 0 1.2 1.2 0 0 0-2.4 0M4.9 10A5.1 5.1 0 1 0 15 10a5.1 5.1 0 0 0-10.2 0m1.8 0a3.3 3.3 0 1 1 6.6 0 3.3 3.3 0 0 1-6.6 0" fill="#000" fill-rule="evenodd"/>
</svg>
