<svg width="20" height="20" viewBox="0 0 24 24" fill="none" xmlns="http://www.w3.org/2000/svg">
  <path fill-rule="evenodd" clip-rule="evenodd" d="M6 2a4 4 0 0 0-4 4v12a4 4 0 0 0 4 4h12a4 4 0 0 0 4-4V6a4 4 0 0 0-4-4H6ZM4 6c0-1.1.9-2 2-2h12a2 2 0 0 1 2 2v12a2 2 0 0 1-2 2H6a2 2 0 0 1-2-2V6Zm5 5a1 1 0 1 0-2 0v6a1 1 0 1 0 2 0v-6Zm.5-3.5a1.5 1.5 0 1 1-3 0 1.5 1.5 0 0 1 3 0ZM12 10c.3 0 .6.2.8.4.5-.2 1.1-.4 1.7-.4 2.2 0 3.5 2 3.5 3.6V17a1 1 0 1 1-2 0V13.5c0-.8-.7-1.6-1.5-1.6-.5 0-1.1.3-1.5 1V17a1 1 0 1 1-2 0V11c0-.6.4-1 1-1Z" fill="#000"/>
</svg>
